<svg width="16" height="16" viewBox="0 0 16 16" fill="none" xmlns="http://www.w3.org/2000/svg">
<path d="M15.515 1.98068L15.5151 1.98075L15.5182 1.97708C15.9149 1.49707 15.9681 0.826644 15.5707 0.429289C15.1425 0.00107317 14.3995 0.0954435 13.9141 0.580804L8 6.49494L2.08586 0.580804L2.08594 0.580725L2.08245 0.577549L1.98068 0.484952L1.98075 0.484868L1.97708 0.481835C1.49707 0.0851342 0.826644 0.0319348 0.429289 0.429289C0.00107411 0.857505 0.0954437 1.6005 0.580805 2.08586L6.49494 8L0.580804 13.9141L0.580725 13.9141L0.577549 13.9176L0.484953 14.0193L0.484869 14.0192L0.481836 14.0229C0.0851349 14.5029 0.0319348 15.1734 0.429289 15.5707C0.857505 15.9989 1.6005 15.9046 2.08586 15.4192L8 9.50506L13.9141 15.4192L13.9141 15.4193L13.9176 15.4225L14.0193 15.515L14.0192 15.5151L14.0229 15.5182C14.5029 15.9149 15.1734 15.9681 15.5707 15.5707C15.9989 15.1425 15.9046 14.3995 15.4192 13.9141L9.50506 8L15.4192 2.08586L15.4193 2.08594L15.4225 2.08245L15.515 1.98068Z" fill="#1C1919" stroke="#1C1919" stroke-width="0.2"/>
</svg>
