<svg width="32" height="32" viewBox="0 0 32 32" fill="none" xmlns="http://www.w3.org/2000/svg">
<circle cx="16" cy="16" r="14" fill="#646262"/>
<path fill-rule="evenodd" clip-rule="evenodd" d="M11.2929 19.2929C10.9024 19.6834 10.9024 20.3166 11.2929 20.7071C11.6834 21.0976 12.3166 21.0976 12.7071 20.7071L16 17.4142L19.2929 20.7071C19.6834 21.0976 20.3166 21.0976 20.7071 20.7071C21.0976 20.3166 21.0976 19.6834 20.7071 19.2929L17.4142 16L20.7071 12.7071C21.0976 12.3166 21.0976 11.6834 20.7071 11.2929C20.3166 10.9023 19.6834 10.9023 19.2929 11.2929L16 14.5858L12.7071 11.2929C12.3166 10.9023 11.6834 10.9023 11.2929 11.2929C10.9024 11.6834 10.9024 12.3166 11.2929 12.7071L14.5858 16L11.2929 19.2929Z" fill="#D0D0D0"/>
</svg>
