<svg width="16" height="16" viewBox="0 0 16 16" fill="none" xmlns="http://www.w3.org/2000/svg">
<circle cx="8" cy="8" r="7.5" fill="#E5222F"/>
<path fill-rule="evenodd" clip-rule="evenodd" d="M11.3737 9.95972C11.7642 10.3502 11.7642 10.9834 11.3737 11.3739C10.9832 11.7645 10.35 11.7645 9.95948 11.3739L7.99992 9.41438L6.04036 11.3739C5.64983 11.7645 5.01667 11.7645 4.62615 11.3739C4.23562 10.9834 4.23562 10.3502 4.62615 9.95972L6.58571 8.00016L4.62615 6.0406C4.23562 5.65008 4.23562 5.01691 4.62615 4.62639C5.01667 4.23587 5.64984 4.23587 6.04036 4.62639L7.99992 6.58595L9.95948 4.62639C10.35 4.23587 10.9832 4.23587 11.3737 4.62639C11.7642 5.01691 11.7642 5.65008 11.3737 6.0406L9.41413 8.00016L11.3737 9.95972Z" fill="white"/>
</svg>
