<svg width="23" height="23" viewBox="0 0 23 23" fill="none" xmlns="http://www.w3.org/2000/svg">
<path d="M21.7209 7.81995C21.0054 7.81995 20.4431 7.25773 20.4431 6.54218V5.11111C20.4431 3.70551 19.2932 2.55556 17.8876 2.55556H16.6098C15.8943 2.55556 15.332 1.99333 15.332 1.27778C15.332 0.562222 15.8943 0 16.6098 0H17.8876C20.6988 0 22.9987 2.29991 22.9987 5.11111V6.54218C22.9987 7.25773 22.4365 7.81995 21.7209 7.81995Z" fill="#494747"/>
<path d="M17.8876 23H16.6098C15.8943 23 15.332 22.4378 15.332 21.7222C15.332 21.0067 15.8943 20.4444 16.6098 20.4444H17.8876C19.2932 20.4444 20.4431 19.2945 20.4431 17.8889V16.5599C20.4431 15.8444 21.0054 15.2822 21.7209 15.2822C22.4365 15.2822 22.9987 15.8444 22.9987 16.5599V17.8889C22.9987 20.7001 20.6988 23 17.8876 23Z" fill="#494747"/>
<path d="M6.38889 23H5.11111C2.29991 23 0 20.7001 0 17.8889V16.6111C0 15.8955 0.562222 15.3333 1.27778 15.3333C1.99333 15.3333 2.55556 15.8955 2.55556 16.6111V17.8889C2.55556 19.2945 3.70551 20.4444 5.11111 20.4444H6.38889C7.10444 20.4444 7.66667 21.0066 7.66667 21.7222C7.66667 22.4378 7.10444 23 6.38889 23Z" fill="#494747"/>
<path d="M1.27778 7.61579C0.562222 7.61579 0 7.05356 0 6.33801V5.11139C0 2.30018 2.29991 0.000274658 5.11111 0.000274658H6.38889C7.10444 0.000274658 7.66667 0.562497 7.66667 1.27805C7.66667 1.99361 7.10444 2.55583 6.38889 2.55583H5.11111C3.70551 2.55583 2.55556 3.70579 2.55556 5.11139V6.33801C2.55556 7.02805 1.99333 7.61579 1.27778 7.61579Z" fill="#494747"/>
<path d="M9.96546 11.5H5.36546C4.52212 11.5 3.83203 10.81 3.83203 9.96662V5.36662C3.83203 4.52328 4.52208 3.83319 5.36546 3.83319H9.96546C10.8088 3.83319 11.4989 4.52324 11.4989 5.36662V9.96662C11.4987 10.8098 10.8087 11.4999 9.96532 11.4999L9.96546 11.5ZM6.38777 8.94448H8.94333V6.38893H6.38777V8.94448Z" fill="#494747"/>
<path d="M17.6334 19.1667H13.0334C12.1901 19.1667 11.5 18.4767 11.5 17.6333V13.0333C11.5 12.19 12.19 11.4999 13.0334 11.4999H17.6334C18.4768 11.4999 19.1669 12.1899 19.1669 13.0333V17.6333C19.1667 18.4765 18.4766 19.1665 17.6333 19.1665L17.6334 19.1667ZM14.0557 16.6112H16.6113V14.0556H14.0557V16.6112Z" fill="#494747"/>
<path d="M15.3349 10.2222H14.0571C13.3415 10.2222 12.7793 9.65998 12.7793 8.94442C12.7793 8.22887 13.3415 7.66665 14.0571 7.66665V5.11109C14.0571 4.39554 14.6193 3.83331 15.3349 3.83331H17.8904C18.606 3.83331 19.1682 4.39554 19.1682 5.11109C19.1682 5.82665 18.606 6.38887 17.8904 6.38887H16.6126V8.94442C16.6126 9.65998 16.0504 10.2222 15.3349 10.2222Z" fill="#494747"/>
<path d="M8.94314 19.1667C8.22759 19.1667 7.66536 18.6044 7.66536 17.8889V15.3333H5.10981C4.39425 15.3333 3.83203 14.7711 3.83203 14.0555C3.83203 13.34 4.39425 12.7778 5.10981 12.7778H8.94314C9.6587 12.7778 10.2209 13.34 10.2209 14.0555V17.8889C10.2209 18.6044 9.6587 19.1667 8.94314 19.1667Z" fill="#494747"/>
</svg>
