<svg width="40" height="40" viewBox="0 0 40 40" fill="none" xmlns="http://www.w3.org/2000/svg">
<rect x="0.5" y="0.499969" width="39" height="39" rx="7.5" fill="#323232"/>
<path d="M18.4975 12.5L19.1524 11.7443C18.8565 11.4879 18.4382 11.4277 18.0821 11.5903C17.7259 11.7529 17.4975 12.1085 17.4975 12.5H18.4975ZM18.4975 16.3024L18.6268 17.294C19.1249 17.229 19.4975 16.8047 19.4975 16.3024H18.4975ZM25.9998 19.002L26.6547 19.7577C26.8739 19.5677 26.9998 19.292 26.9998 19.002C26.9998 18.712 26.8739 18.4362 26.6547 18.2463L25.9998 19.002ZM18.4975 25.504H17.4975C17.4975 25.8955 17.7259 26.2511 18.0821 26.4137C18.4382 26.5763 18.8565 26.5161 19.1524 26.2597L18.4975 25.504ZM18.4975 21.7535H19.4975C19.4975 21.4826 19.3875 21.2233 19.1929 21.0349C18.9982 20.8465 18.7354 20.7452 18.4646 20.7541L18.4975 21.7535ZM11.4322 27.4999L10.4401 27.6253C10.4995 28.0957 10.8812 28.4597 11.3538 28.4969C11.8265 28.534 12.2603 28.2341 12.3925 27.7787L11.4322 27.4999ZM17.4975 12.5V16.3024H19.4975V12.5H17.4975ZM26.6547 18.2463L19.1524 11.7443L17.8425 13.2557L25.3449 19.7577L26.6547 18.2463ZM19.1524 26.2597L26.6547 19.7577L25.3449 18.2463L17.8425 24.7483L19.1524 26.2597ZM17.4975 21.7535V25.504H19.4975V21.7535H17.4975ZM12.3925 27.7787C13.2565 24.8027 15.6153 22.8488 18.5303 22.753L18.4646 20.7541C14.5945 20.8812 11.551 23.5037 10.4718 27.2211L12.3925 27.7787ZM18.3681 15.3108C15.2123 15.7224 13.0348 17.5424 11.7594 19.8933C10.5003 22.2142 10.1144 25.0485 10.4401 27.6253L12.4243 27.3746C12.1418 25.1389 12.4907 22.7394 13.5173 20.8471C14.5277 18.9848 16.187 17.6122 18.6268 17.294L18.3681 15.3108Z" fill="#A8A8A8"/>
<rect x="0.5" y="0.499969" width="39" height="39" rx="7.5" stroke="#404040"/>
</svg>
