<svg width="23" height="12" viewBox="0 0 23 12" fill="none" xmlns="http://www.w3.org/2000/svg">
<path fill-rule="evenodd" clip-rule="evenodd" d="M5.62221 2.55564C3.92857 2.55564 2.5556 3.92861 2.5556 5.62226C2.5556 7.3159 3.92857 8.68887 5.62221 8.68887H8.94447C9.65022 8.68887 10.2222 9.2609 10.2222 9.96665C10.2222 10.6724 9.65022 11.2444 8.94447 11.2444H5.62221C2.51726 11.2444 0 8.72739 0 5.62221C0 2.51703 2.51722 0 5.62221 0H8.94447C9.65022 0 10.2222 0.572033 10.2222 1.27778C10.2222 1.98352 9.65022 2.55555 8.94447 2.55555L5.62221 2.55564ZM12.7778 1.27787C12.7778 0.572124 13.3498 9.12195e-05 14.0555 9.12195e-05H17.3778C20.4827 9.12195e-05 23 2.51713 23 5.6223C23 8.72748 20.4828 11.2445 17.3778 11.2445H14.0555C13.3498 11.2445 12.7778 10.6725 12.7778 9.96674C12.7778 9.261 13.3498 8.68896 14.0555 8.68896H17.3778C19.0714 8.68896 20.4444 7.31599 20.4444 5.62235C20.4444 3.9287 19.0714 2.55573 17.3778 2.55573H14.0555C13.3498 2.55573 12.7778 1.9837 12.7778 1.27796V1.27787Z" fill="#494747"/>
<path d="M6.3891 4.34448H16.6113C17.317 4.34448 17.8891 5.05023 17.8891 5.62226C17.8891 6.328 17.317 6.90003 16.6113 6.90003H6.3891C5.68336 6.90003 5.11133 6.19429 5.11133 5.62226C5.11133 4.91652 5.68336 4.34448 6.3891 4.34448Z" fill="#494747"/>
</svg>
