<svg width="40" height="40" viewBox="0 0 40 40" fill="none" xmlns="http://www.w3.org/2000/svg">
<rect x="0.5" y="0.499969" width="39" height="39" rx="7.5" fill="#323232"/>
<path d="M21.7524 13.7326L23.0482 15.0072C23.2105 15.1681 23.4313 15.2586 23.6615 15.2586C23.8919 15.2586 24.1127 15.1681 24.2748 15.0072C24.406 14.8719 24.488 14.6978 24.5083 14.5119C24.5286 14.3259 24.4861 14.1387 24.3872 13.979H27.5487C27.8573 13.979 28.1425 13.8171 28.2968 13.5542C28.4511 13.2913 28.4511 12.9672 28.2968 12.7043C28.1425 12.4415 27.8573 12.2796 27.5487 12.2796H24.3872C24.4861 12.1198 24.5286 11.9326 24.5083 11.7467C24.488 11.5608 24.406 11.3866 24.2748 11.2513C24.1127 11.0904 23.8918 11 23.6615 11C23.4313 11 23.2104 11.0904 23.0482 11.2513L21.7524 12.5259C21.6738 12.6067 21.6122 12.7021 21.5711 12.8063C21.4846 13.0132 21.4846 13.2453 21.5711 13.4521C21.6122 13.5564 21.6738 13.6518 21.7524 13.7326ZM30.9352 17.0551C30.8942 16.9508 30.8324 16.8555 30.7538 16.7747L29.458 15.5001C29.2959 15.3392 29.0751 15.2487 28.8447 15.2487C28.6145 15.2487 28.3936 15.3392 28.2314 15.5001C28.1004 15.6354 28.0183 15.8095 27.998 15.9954C27.9778 16.1812 28.0203 16.3686 28.1192 16.5282H24.9575C24.6489 16.5282 24.3637 16.6902 24.2094 16.9531C24.0551 17.216 24.0551 17.5399 24.2094 17.8028C24.3637 18.0657 24.6489 18.2277 24.9575 18.2277H28.1192C28.0203 18.3873 27.9778 18.5747 27.998 18.7606C28.0182 18.9464 28.1004 19.1205 28.2314 19.256C28.3937 19.4169 28.6145 19.5073 28.8447 19.5073C29.0751 19.5073 29.2959 19.4169 29.458 19.256L30.7538 17.9814C30.8324 17.9006 30.8942 17.8052 30.9352 17.701C31.0216 17.494 31.0216 17.2619 30.9352 17.0551ZM20.6385 17.8028C19.722 17.8028 18.8431 18.161 18.1952 18.7984C17.5472 19.4357 17.183 20.3003 17.183 21.2018C17.183 22.1033 17.5472 22.9678 18.1952 23.6052C18.8431 24.2427 19.722 24.6007 20.6385 24.6007C21.5549 24.6007 22.4337 24.2427 23.0817 23.6052C23.7298 22.9678 24.0938 22.1033 24.0938 21.2018C24.0938 20.3003 23.7298 19.4357 23.0817 18.7984C22.4337 18.161 21.5549 17.8028 20.6385 17.8028ZM20.6385 22.9012C20.1802 22.9012 19.7408 22.7222 19.4168 22.4035C19.0928 22.0848 18.9108 21.6525 18.9108 21.2018C18.9108 20.751 19.0928 20.3188 19.4168 20.0001C19.7408 19.6814 20.1802 19.5023 20.6385 19.5023C21.0966 19.5023 21.5361 19.6814 21.86 20.0001C22.1841 20.3188 22.366 20.751 22.366 21.2018C22.366 21.6525 22.1841 22.0848 21.86 22.4035C21.5361 22.7222 21.0966 22.9012 20.6385 22.9012ZM28.413 20.352C28.1838 20.352 27.9641 20.4416 27.8021 20.6009C27.6402 20.7603 27.549 20.9764 27.549 21.2018V25.4506C27.549 25.6761 27.4581 25.8921 27.2961 26.0514C27.1341 26.2107 26.9143 26.3003 26.6853 26.3003H14.5915C14.3624 26.3003 14.1427 26.2107 13.9808 26.0514C13.8186 25.8921 13.7277 25.676 13.7277 25.4505V18.6528C13.7277 18.4274 13.8186 18.2113 13.9808 18.0519C14.1427 17.8926 14.3624 17.803 14.5915 17.803H16.3192C16.5086 17.8121 16.6959 17.7598 16.852 17.6538C17.0081 17.5478 17.1244 17.3942 17.183 17.2168L17.6495 15.8402C17.7035 15.6764 17.8067 15.5327 17.9455 15.4281C18.0844 15.3234 18.2523 15.2626 18.427 15.2538H19.7745C20.0831 15.2538 20.3683 15.0919 20.5226 14.829C20.6769 14.5661 20.6769 14.2421 20.5226 13.9792C20.3683 13.7163 20.0831 13.5544 19.7745 13.5544H18.427C17.8815 13.5541 17.35 13.7233 16.908 14.0375C16.4659 14.3519 16.136 14.7953 15.965 15.3049L15.6972 16.1037H14.5915C13.9043 16.1037 13.2451 16.3722 12.7591 16.8502C12.273 17.3283 12 17.9767 12 18.6529V25.4509C12 26.127 12.273 26.7753 12.7591 27.2534C13.2451 27.7314 13.9043 28 14.5915 28H26.6853C27.3726 28 28.0318 27.7314 28.5177 27.2534C29.0038 26.7753 29.2768 26.1269 29.2768 25.4508V21.2023C29.2768 20.9768 29.1858 20.7607 29.0237 20.6014C28.8618 20.4421 28.642 20.352 28.413 20.352Z" fill="#9E9E9E"/>
<rect x="0.5" y="0.499969" width="39" height="39" rx="7.5" stroke="#404040"/>
</svg>
