<svg width="25" height="24" viewBox="0 0 25 24" fill="none" xmlns="http://www.w3.org/2000/svg">
<path d="M20.05 15.4116L17.6637 13.0865C17.2966 12.6786 16.3175 12.1483 15.1551 12.8825C15.0939 12.9233 15.0531 12.9437 15.0123 12.9845L14.0537 13.9431C13.0748 13.3517 10.9332 11.8424 9.75032 9.6397L10.403 8.98698C10.5459 8.84415 11.1169 8.27308 11.1373 7.43699C11.1576 7.02912 11.0557 6.41723 10.4234 5.78502L8.07799 3.45997C8.03716 3.41914 8.01681 3.39879 7.97598 3.37845C7.50693 3.05209 6.34433 2.64422 5.30425 3.56197C5.20225 3.64349 2.93838 5.60149 3.63178 8.88511C3.65212 9.17063 3.77461 9.98637 4.38636 11.2305C5.32461 13.0865 6.9154 15.024 9.15883 16.9819C9.22 17.0431 10.6885 18.2872 12.7076 19.2049C13.1155 19.3885 13.605 19.2049 13.7886 18.7971C13.9721 18.3892 13.7886 17.8997 13.3807 17.7161C11.5859 16.9004 10.2399 15.7581 10.2194 15.7378C5.46734 11.5364 5.26375 8.76266 5.26375 8.74227C5.26375 8.68109 5.26375 8.64026 5.24341 8.57909C4.71317 6.25404 6.28353 4.84678 6.36518 4.78559C6.63036 4.56124 6.87506 4.60207 6.99739 4.68359L9.28161 6.94745C9.44479 7.11063 9.50597 7.25332 9.50597 7.37582C9.50597 7.55934 9.34279 7.74286 9.30196 7.78368L8.18019 8.90545C7.93549 9.15015 7.87432 9.49684 8.01701 9.8232C9.64866 13.5147 13.6461 15.595 13.8092 15.697C14.1151 15.8602 14.5026 15.799 14.7475 15.5542L16.0936 14.2489C16.2568 14.1674 16.3995 14.1469 16.4811 14.2285C16.5015 14.2489 16.4811 14.2285 16.522 14.2694L18.8673 16.5536C19.0305 16.7779 19.1937 17.0635 18.9082 17.3082C18.847 17.349 18.8267 17.3693 18.7653 17.4305C17.6027 18.797 15.9304 18.4706 15.8489 18.4706C15.4205 18.3686 14.972 18.6542 14.8903 19.0825C14.7883 19.5312 15.0739 19.9594 15.5022 20.0615C15.543 20.0615 15.8693 20.143 16.3791 20.143C17.2969 20.143 18.7857 19.8983 19.9686 18.5522C20.1727 18.389 20.5805 17.9403 20.6826 17.2672C20.7437 16.8594 20.6826 16.2271 20.1115 15.5132C20.091 15.4522 20.0707 15.4319 20.0503 15.4115L20.05 15.4116Z" fill="#605E5E"/>
<line x1="16.5833" y1="5.64286" x2="16.5833" y2="10.3571" stroke="#605E5E" stroke-width="1.28571" stroke-linecap="round"/>
<line x1="18.8571" y1="8.0109" x2="14.1429" y2="8.0109" stroke="#605E5E" stroke-width="1.28571" stroke-linecap="round"/>
</svg>
